<?xml version="1.0" encoding="UTF-8" standalone="no"?>
<!DOCTYPE svg PUBLIC "-//W3C//DTD SVG 1.1//EN"
 "http://www.w3.org/Graphics/SVG/1.1/DTD/svg11.dtd">
<!-- Generated by graphviz version 2.38.0 (20140413.2041)
 -->
<!-- Title: G Pages: 1 -->
<svg width="582pt" height="212pt"
 viewBox="0.00 0.00 581.81 211.98" xmlns="http://www.w3.org/2000/svg" xmlns:xlink="http://www.w3.org/1999/xlink">
<g id="graph0" class="graph" transform="scale(1 1) rotate(0) translate(4 207.983)">
<title>G</title><style>.edge>path:hover{stroke-width:8}</style>
<polygon fill="white" stroke="none" points="-4,4 -4,-207.983 577.81,-207.983 577.81,4 -4,4"/>
<!-- geopy -->
<g id="node1" class="node"><title>geopy</title><style>.edge>path:hover{stroke-width:8}</style>
<ellipse fill="#cc3333" stroke="black" cx="269.078" cy="-185.983" rx="27" ry="18"/>
<text text-anchor="middle" x="269.078" y="-183.483" font-family="Helvetica,sans-Serif" font-size="10.00" fill="#ffffff">geopy</text>
</g>
<!-- squaregrid_metadata_city -->
<g id="node8" class="node"><title>squaregrid_metadata_city</title><style>.edge>path:hover{stroke-width:8}</style>
<ellipse fill="#8f3d83" stroke="black" cx="263.078" cy="-28.9914" rx="45.9239" ry="28.9828"/>
<text text-anchor="middle" x="263.078" y="-37.4914" font-family="Helvetica,sans-Serif" font-size="10.00" fill="#ffffff">squaregrid.</text>
<text text-anchor="middle" x="263.078" y="-26.4914" font-family="Helvetica,sans-Serif" font-size="10.00" fill="#ffffff">metadata.</text>
<text text-anchor="middle" x="263.078" y="-15.4914" font-family="Helvetica,sans-Serif" font-size="10.00" fill="#ffffff">city</text>
</g>
<!-- geopy&#45;&gt;squaregrid_metadata_city -->
<g id="edge1" class="edge"><title>geopy&#45;&gt;squaregrid_metadata_city</title><style>.edge>path:hover{stroke-width:8}</style>
<path fill="none" stroke="black" d="M247.838,-174.549C226.168,-163.183 195.747,-144.899 196.078,-131.983"/>
</g>
<!-- squaregrid_pyradii_radii_calculations -->
<g id="node2" class="node"><title>squaregrid_pyradii_radii_calculations</title><style>.edge>path:hover{stroke-width:8}</style>
<ellipse fill="#a44697" stroke="black" cx="458.078" cy="-28.9914" rx="65.1077" ry="28.9828"/>
<text text-anchor="middle" x="458.078" y="-37.4914" font-family="Helvetica,sans-Serif" font-size="10.00" fill="#ffffff">squaregrid.</text>
<text text-anchor="middle" x="458.078" y="-26.4914" font-family="Helvetica,sans-Serif" font-size="10.00" fill="#ffffff">pyradii.</text>
<text text-anchor="middle" x="458.078" y="-15.4914" font-family="Helvetica,sans-Serif" font-size="10.00" fill="#ffffff">radii_calculations</text>
</g>
<!-- geopy_distance -->
<g id="node3" class="node"><title>geopy_distance</title><style>.edge>path:hover{stroke-width:8}</style>
<ellipse fill="#b34c4c" stroke="black" cx="363.078" cy="-185.983" rx="48.7185" ry="18"/>
<text text-anchor="middle" x="363.078" y="-183.483" font-family="Helvetica,sans-Serif" font-size="10.00" fill="#ffffff">geopy.distance</text>
</g>
<!-- geopy_distance&#45;&gt;squaregrid_metadata_city -->
<g id="edge2" class="edge"><title>geopy_distance&#45;&gt;squaregrid_metadata_city</title><style>.edge>path:hover{stroke-width:8}</style>
<path fill="none" stroke="black" d="M325.992,-174.162C276.763,-159.668 195.992,-135.366 196.078,-131.983"/>
</g>
<!-- psycopg2 -->
<g id="node4" class="node"><title>psycopg2</title><style>.edge>path:hover{stroke-width:8}</style>
<ellipse fill="#4089c0" stroke="black" cx="539.078" cy="-185.983" rx="34.9638" ry="18"/>
<text text-anchor="middle" x="539.078" y="-183.483" font-family="Helvetica,sans-Serif" font-size="10.00" fill="#ffffff">psycopg2</text>
</g>
<!-- psycopg2&#45;&gt;squaregrid_pyradii_radii_calculations -->
<g id="edge7" class="edge"><title>psycopg2&#45;&gt;squaregrid_pyradii_radii_calculations</title><style>.edge>path:hover{stroke-width:8}</style>
<path fill="none" stroke="black" d="M530.41,-168.396C517.781,-144.23 493.995,-98.7166 477.152,-66.4885"/>
<polygon fill="#4089c0" stroke="black" points="480.119,-64.6078 472.385,-57.3662 473.915,-67.85 480.119,-64.6078"/>
</g>
<!-- numpy -->
<g id="node5" class="node"><title>numpy</title><style>.edge>path:hover{stroke-width:8}</style>
<ellipse fill="#64c040" stroke="black" cx="27.0785" cy="-185.983" rx="27.1572" ry="18"/>
<text text-anchor="middle" x="27.0785" y="-183.483" font-family="Helvetica,sans-Serif" font-size="10.00" fill="#000000">numpy</text>
</g>
<!-- numpy&#45;&gt;squaregrid_metadata_city -->
<g id="edge4" class="edge"><title>numpy&#45;&gt;squaregrid_metadata_city</title><style>.edge>path:hover{stroke-width:8}</style>
<path fill="none" stroke="black" d="M48.1326,-174.28C52.9735,-172.033 58.149,-169.798 63.0785,-167.983 120.546,-146.826 194.507,-193.201 196.078,-131.983"/>
<path fill="none" stroke="black" d="M196.078,-130.983C196.768,-104.112 213.454,-78.9102 230,-60.4031"/>
<polygon fill="#64c040" stroke="black" points="232.751,-62.586 237.035,-52.896 227.643,-57.7994 232.751,-62.586"/>
</g>
<!-- sqlalchemy -->
<g id="node6" class="node"><title>sqlalchemy</title><style>.edge>path:hover{stroke-width:8}</style>
<ellipse fill="#6440c0" stroke="black" cx="111.078" cy="-185.983" rx="38.7041" ry="18"/>
<text text-anchor="middle" x="111.078" y="-183.483" font-family="Helvetica,sans-Serif" font-size="10.00" fill="#ffffff">sqlalchemy</text>
</g>
<!-- sqlalchemy&#45;&gt;squaregrid_metadata_city -->
<g id="edge8" class="edge"><title>sqlalchemy&#45;&gt;squaregrid_metadata_city</title><style>.edge>path:hover{stroke-width:8}</style>
<path fill="none" stroke="black" d="M139.225,-173.457C163.838,-162.472 195.728,-145.63 196.078,-131.983"/>
</g>
<!-- helpers -->
<g id="node7" class="node"><title>helpers</title><style>.edge>path:hover{stroke-width:8}</style>
<ellipse fill="#b6a853" stroke="black" cx="196.078" cy="-185.983" rx="28.0137" ry="18"/>
<text text-anchor="middle" x="196.078" y="-183.483" font-family="Helvetica,sans-Serif" font-size="10.00" fill="#000000">helpers</text>
</g>
<!-- helpers&#45;&gt;squaregrid_metadata_city -->
<g id="edge3" class="edge"><title>helpers&#45;&gt;squaregrid_metadata_city</title><style>.edge>path:hover{stroke-width:8}</style>
<path fill="none" stroke="black" d="M195.855,-167.794C195.776,-157.421 195.772,-143.941 196.078,-131.983"/>
</g>
<!-- pandas -->
<g id="node9" class="node"><title>pandas</title><style>.edge>path:hover{stroke-width:8}</style>
<ellipse fill="#33cc8a" stroke="black" cx="458.078" cy="-185.983" rx="28.0137" ry="18"/>
<text text-anchor="middle" x="458.078" y="-183.483" font-family="Helvetica,sans-Serif" font-size="10.00" fill="#000000">pandas</text>
</g>
<!-- pandas&#45;&gt;squaregrid_pyradii_radii_calculations -->
<g id="edge6" class="edge"><title>pandas&#45;&gt;squaregrid_pyradii_radii_calculations</title><style>.edge>path:hover{stroke-width:8}</style>
<path fill="none" stroke="black" d="M458.078,-93.9828C453.947,-86.2313 452.368,-77.1642 452.158,-68.3334"/>
<polygon fill="#33cc8a" stroke="black" points="455.662,-68.2711 452.47,-58.1684 448.665,-68.0563 455.662,-68.2711"/>
</g>
<!-- pandas&#45;&gt;squaregrid_metadata_city -->
<g id="edge5" class="edge"><title>pandas&#45;&gt;squaregrid_metadata_city</title><style>.edge>path:hover{stroke-width:8}</style>
<path fill="none" stroke="black" d="M462.602,-167.92C466.656,-148.919 470.277,-117.872 458.078,-94.9828"/>
<path fill="none" stroke="black" d="M458.078,-93.9828C449.928,-81.6281 370.21,-58.3533 315.26,-43.5386"/>
<polygon fill="#33cc8a" stroke="black" points="315.876,-40.0803 305.311,-40.8754 314.066,-46.8422 315.876,-40.0803"/>
</g>
</g>
</svg>
